<svg width="42" height="42" viewBox="0 0 42 42" fill="none" xmlns="http://www.w3.org/2000/svg">
<g clip-path="url(#clip0_814_176)">
<path d="M0.966974 30.3869L14.9103 3.81641C16.6815 4.97707 25.6126 10.4787 27.055 11.525L13.1116 38.097C11.5867 40.3394 -0.964936 33.7898 0.966974 30.3854V30.3869Z" fill="#FBBC04"/>
<path d="M41.0285 30.3864L27.0852 3.81761C25.1359 0.206702 20.9377 -1.10552 17.4894 1.02716C14.0412 3.15985 12.9912 7.75392 14.9405 11.5261L28.8839 38.0982C30.8332 41.7074 35.0315 43.0195 38.4798 40.887C41.7773 38.7541 42.9778 33.9972 41.0285 30.3895V30.3864Z" fill="#4285F4"/>
<path d="M7.00034 41.9137C10.8659 41.9137 13.9996 38.5123 13.9996 34.3165C13.9996 30.1206 10.8659 26.7192 7.00034 26.7192C3.13476 26.7192 0.00109863 30.1206 0.00109863 34.3165C0.00109863 38.5123 3.13476 41.9137 7.00034 41.9137Z" fill="#34A853"/>
</g>
<defs>
<clipPath id="clip0_814_176">
<rect width="42" height="42" fill="white"/>
</clipPath>
</defs>
</svg>
