<svg width="32" height="32" viewBox="0 0 32 32" fill="none" xmlns="http://www.w3.org/2000/svg">
<path d="M25.3334 18.6668C24.9556 18.6668 24.6392 18.5388 24.384 18.2828C24.128 18.0277 24 17.7113 24 17.3335V14.6668H21.3334C20.9556 14.6668 20.6392 14.5388 20.384 14.2828C20.128 14.0277 20 13.7113 20 13.3335C20 12.9557 20.128 12.6388 20.384 12.3828C20.6392 12.1277 20.9556 12.0002 21.3334 12.0002H24V9.3335C24 8.95572 24.128 8.63883 24.384 8.38283C24.6392 8.12772 24.9556 8.00016 25.3334 8.00016C25.7112 8.00016 26.0276 8.12772 26.2827 8.38283C26.5387 8.63883 26.6667 8.95572 26.6667 9.3335V12.0002H29.3334C29.7112 12.0002 30.0276 12.1277 30.2827 12.3828C30.5387 12.6388 30.6667 12.9557 30.6667 13.3335C30.6667 13.7113 30.5387 14.0277 30.2827 14.2828C30.0276 14.5388 29.7112 14.6668 29.3334 14.6668H26.6667V17.3335C26.6667 17.7113 26.5387 18.0277 26.2827 18.2828C26.0276 18.5388 25.7112 18.6668 25.3334 18.6668ZM12 16.0002C10.5334 16.0002 9.27782 15.4779 8.23337 14.4335C7.18893 13.3891 6.66671 12.1335 6.66671 10.6668C6.66671 9.20016 7.18893 7.94461 8.23337 6.90016C9.27782 5.85572 10.5334 5.3335 12 5.3335C13.4667 5.3335 14.7223 5.85572 15.7667 6.90016C16.8112 7.94461 17.3334 9.20016 17.3334 10.6668C17.3334 12.1335 16.8112 13.3891 15.7667 14.4335C14.7223 15.4779 13.4667 16.0002 12 16.0002ZM2.66671 26.6668C2.28893 26.6668 1.97249 26.5388 1.71737 26.2828C1.46137 26.0277 1.33337 25.7113 1.33337 25.3335V22.9335C1.33337 22.1779 1.52804 21.4833 1.91737 20.8495C2.30582 20.2166 2.82226 19.7335 3.46671 19.4002C4.84449 18.7113 6.24449 18.1944 7.66671 17.8495C9.08893 17.5055 10.5334 17.3335 12 17.3335C13.4667 17.3335 14.9112 17.5055 16.3334 17.8495C17.7556 18.1944 19.1556 18.7113 20.5334 19.4002C21.1778 19.7335 21.6943 20.2166 22.0827 20.8495C22.472 21.4833 22.6667 22.1779 22.6667 22.9335V25.3335C22.6667 25.7113 22.5387 26.0277 22.2827 26.2828C22.0276 26.5388 21.7112 26.6668 21.3334 26.6668H2.66671ZM4.00004 24.0002H20V22.9335C20 22.6891 19.9392 22.4668 19.8174 22.2668C19.6947 22.0668 19.5334 21.9113 19.3334 21.8002C18.1334 21.2002 16.9223 20.7499 15.7 20.4495C14.4778 20.1499 13.2445 20.0002 12 20.0002C10.7556 20.0002 9.52226 20.1499 8.30004 20.4495C7.07782 20.7499 5.86671 21.2002 4.66671 21.8002C4.46671 21.9113 4.30582 22.0668 4.18404 22.2668C4.06137 22.4668 4.00004 22.6891 4.00004 22.9335V24.0002ZM12 13.3335C12.7334 13.3335 13.3614 13.0722 13.884 12.5495C14.4058 12.0277 14.6667 11.4002 14.6667 10.6668C14.6667 9.9335 14.4058 9.30594 13.884 8.78416C13.3614 8.2615 12.7334 8.00016 12 8.00016C11.2667 8.00016 10.6392 8.2615 10.1174 8.78416C9.59471 9.30594 9.33337 9.9335 9.33337 10.6668C9.33337 11.4002 9.59471 12.0277 10.1174 12.5495C10.6392 13.0722 11.2667 13.3335 12 13.3335Z" fill="#f11d76"/>
</svg>
