<svg width="32" height="32" viewBox="0 0 32 32" fill="none" xmlns="http://www.w3.org/2000/svg">
<path d="M16 8.00016C18.4517 7.99201 20.8559 8.67587 22.9362 9.97313C25.0165 11.2704 26.6886 13.1284 27.76 15.3335C25.56 19.8268 21.0534 22.6668 16 22.6668C10.9467 22.6668 6.44004 19.8268 4.24004 15.3335C5.31153 13.1284 6.98355 11.2704 9.06388 9.97313C11.1442 8.67587 13.5484 7.99201 16 8.00016ZM16 5.3335C9.33337 5.3335 3.64004 9.48016 1.33337 15.3335C3.64004 21.1868 9.33337 25.3335 16 25.3335C22.6667 25.3335 28.36 21.1868 30.6667 15.3335C28.36 9.48016 22.6667 5.3335 16 5.3335ZM16 12.0002C16.8841 12.0002 17.7319 12.3514 18.3571 12.9765C18.9822 13.6016 19.3334 14.4494 19.3334 15.3335C19.3334 16.2176 18.9822 17.0654 18.3571 17.6905C17.7319 18.3156 16.8841 18.6668 16 18.6668C15.116 18.6668 14.2681 18.3156 13.643 17.6905C13.0179 17.0654 12.6667 16.2176 12.6667 15.3335C12.6667 14.4494 13.0179 13.6016 13.643 12.9765C14.2681 12.3514 15.116 12.0002 16 12.0002ZM16 9.3335C12.6934 9.3335 10 12.0268 10 15.3335C10 18.6402 12.6934 21.3335 16 21.3335C19.3067 21.3335 22 18.6402 22 15.3335C22 12.0268 19.3067 9.3335 16 9.3335Z" fill="#f11d76"/>
</svg>
