<svg width="15" height="15" viewBox="0 0 18 18" fill="none" xmlns="http://www.w3.org/2000/svg">
<path d="M15.231 3.14005C14.4478 2.35289 13.5149 1.72877 12.4868 1.3041C11.4586 0.879423 10.3558 0.662696 9.24254 0.666555C4.57822 0.666555 0.776716 4.44904 0.776716 9.09003C0.776716 10.5775 1.16968 12.0225 1.90435 13.2975L0.708374 17.6665L5.1933 16.4935C6.43199 17.165 7.82445 17.522 9.24254 17.522C13.9069 17.522 17.7084 13.7395 17.7084 9.09853C17.7084 6.84604 16.8285 4.72954 15.231 3.14005ZM9.24254 16.094C7.97822 16.094 6.73953 15.754 5.6546 15.1165L5.39832 14.9635L2.733 15.6605L3.44204 13.0765L3.27119 12.813C2.56876 11.6969 2.19578 10.4069 2.19481 9.09003C2.19481 5.23104 5.35561 2.08605 9.234 2.08605C11.1134 2.08605 12.8817 2.81705 14.2059 4.14304C14.8615 4.79241 15.3811 5.5648 15.7345 6.41545C16.0879 7.26609 16.2681 8.17807 16.2647 9.09853C16.2817 12.9575 13.1209 16.094 9.24254 16.094ZM13.1039 10.858C12.8903 10.756 11.8481 10.246 11.6601 10.1695C11.4636 10.1015 11.327 10.0675 11.1817 10.2715C11.0365 10.484 10.635 10.96 10.5154 11.096C10.3958 11.2405 10.2677 11.2575 10.0541 11.147C9.84053 11.045 9.15712 10.8155 8.3541 10.1015C7.72194 9.54053 7.30335 8.85203 7.17521 8.63953C7.05561 8.42703 7.15812 8.31653 7.26918 8.20603C7.36315 8.11253 7.48275 7.95953 7.58526 7.84053C7.68777 7.72153 7.73048 7.62803 7.79883 7.49203C7.86717 7.34753 7.833 7.22854 7.78174 7.12654C7.73048 7.02454 7.30335 5.98754 7.13249 5.56254C6.96164 5.15454 6.78224 5.20554 6.6541 5.19704H6.24405C6.09883 5.19704 5.87672 5.24804 5.68023 5.46054C5.49229 5.67304 4.94556 6.18304 4.94556 7.22004C4.94556 8.25703 5.70586 9.26003 5.80837 9.39603C5.91089 9.54053 7.30335 11.6655 9.42194 12.575C9.92596 12.796 10.3189 12.9235 10.6265 13.017C11.1305 13.1785 11.5918 13.153 11.9591 13.102C12.3692 13.0425 13.2149 12.592 13.3858 12.099C13.5652 11.606 13.5652 11.1895 13.5054 11.096C13.4456 11.0025 13.3174 10.96 13.1039 10.858Z" fill="white"/>
</svg>
