<svg width="317" height="77" viewBox="0 0 317 77" fill="none" xmlns="http://www.w3.org/2000/svg">
<path d="M86.26 70.6999C80.0067 70.6999 75.1534 69.1366 71.7001 66.0099C68.2467 62.8366 66.5201 58.4266 66.5201 52.7799C66.5201 47.1332 68.2467 42.7699 71.7001 39.6899C75.1534 36.5632 80.0067 34.9999 86.26 34.9999C89.5734 34.9999 92.56 35.5599 95.22 36.6799C97.9267 37.7532 100.05 39.2932 101.59 41.2999C102.15 41.9999 102.43 42.7466 102.43 43.5399C102.43 44.7532 101.8 45.8266 100.54 46.7599C99.98 47.1799 99.28 47.3899 98.44 47.3899C97.7867 47.3899 97.11 47.2499 96.41 46.9699C95.71 46.6432 95.1034 46.1999 94.59 45.6399C93.6567 44.5666 92.4434 43.7499 90.9501 43.1899C89.5034 42.5832 87.94 42.2799 86.26 42.2799C82.9467 42.2799 80.3567 43.2132 78.4901 45.0799C76.6701 46.8999 75.76 49.4666 75.76 52.7799C75.76 56.1866 76.6701 58.8232 78.4901 60.6899C80.3567 62.5099 82.9467 63.4199 86.26 63.4199C89.9467 63.4199 93.0967 62.1832 95.7101 59.7099C97.0167 58.4032 98.3001 57.7499 99.5601 57.7499C100.4 57.7499 101.17 58.0299 101.87 58.5899C102.99 59.4766 103.55 60.5499 103.55 61.8099C103.55 62.6032 103.223 63.3732 102.57 64.1199C100.423 66.4066 98.0201 68.0866 95.3601 69.1599C92.7467 70.1866 89.7134 70.6999 86.26 70.6999Z" fill="white"/>
<path d="M152.012 62.2599C152.652 62.7799 152.972 63.4199 152.972 64.1799C152.972 64.9399 152.692 65.7199 152.132 66.5199C151.252 67.7999 150.012 68.7999 148.412 69.5199C146.812 70.2399 145.012 70.5999 143.012 70.5999C139.812 70.5999 137.292 69.7399 135.452 68.0199C133.652 66.2599 132.752 63.8599 132.752 60.8199V46.7799H130.292C129.092 46.7799 128.132 46.4999 127.412 45.9399C126.692 45.3799 126.332 44.6399 126.332 43.7199C126.332 42.7599 126.672 41.9999 127.352 41.4399C128.072 40.8799 129.052 40.5999 130.292 40.5999H132.752V31.5399C132.752 30.4199 133.112 29.5399 133.832 28.8999C134.552 28.2599 135.512 27.9399 136.712 27.9399C137.952 27.9399 138.912 28.2599 139.592 28.8999C140.272 29.5399 140.612 30.4199 140.612 31.5399V40.5999H146.372C147.612 40.5999 148.572 40.8799 149.252 41.4399C149.972 41.9999 150.332 42.7599 150.332 43.7199C150.332 44.6399 149.972 45.3799 149.252 45.9399C148.572 46.4999 147.612 46.7799 146.372 46.7799H140.612V61.4799C140.612 62.3599 140.872 63.0599 141.392 63.5799C141.952 64.0999 142.692 64.3599 143.612 64.3599C144.332 64.3599 144.952 64.2599 145.472 64.0599C146.032 63.8199 146.592 63.4399 147.152 62.9199C148.192 61.9199 149.152 61.4199 150.032 61.4199C150.672 61.4199 151.332 61.6999 152.012 62.2599Z" fill="white"/>
<path d="M161.197 70.5999C159.957 70.5999 158.997 70.2799 158.317 69.6399C157.637 68.9999 157.297 68.1199 157.297 66.9999V43.5999C157.297 42.4399 157.617 41.5599 158.257 40.9599C158.937 40.3199 159.877 39.9999 161.077 39.9999C162.277 39.9999 163.217 40.3199 163.897 40.9599C164.577 41.5999 164.917 42.4799 164.917 43.5999V45.5799C166.157 43.9799 167.597 42.7599 169.237 41.9199C170.917 41.0399 172.717 40.5999 174.637 40.5999H175.957C177.237 40.5999 178.217 40.8799 178.897 41.4399C179.617 41.9599 179.977 42.7199 179.977 43.7199C179.977 44.7199 179.617 45.4999 178.897 46.0599C178.217 46.5799 177.237 46.8399 175.957 46.8399H173.917C171.237 46.8399 169.097 47.6999 167.497 49.4199C165.937 51.0999 165.157 53.4199 165.157 56.3799V66.9999C165.157 68.1199 164.797 68.9999 164.077 69.6399C163.357 70.2799 162.397 70.5999 161.197 70.5999Z" fill="white"/>
<path d="M193.028 70.5999C190.548 70.5999 188.348 70.1799 186.428 69.3399C184.548 68.4999 183.068 67.3399 181.988 65.8599C180.948 64.3399 180.428 62.5999 180.428 60.6399C180.428 57.6799 181.648 55.3199 184.088 53.5599C186.568 51.7999 189.908 50.9199 194.108 50.9199C197.748 50.9199 200.668 51.6999 202.868 53.2599V51.8199C202.868 49.9399 202.288 48.4999 201.128 47.4999C199.968 46.4999 198.288 45.9999 196.088 45.9999C192.808 45.9999 189.988 46.6999 187.628 48.0999C186.628 48.6599 185.768 48.9399 185.048 48.9399C184.168 48.9399 183.388 48.5399 182.708 47.7399C182.268 47.1799 182.048 46.5999 182.048 45.9999C182.048 44.9999 182.568 44.1199 183.608 43.3599C185.048 42.3199 186.868 41.4999 189.068 40.8999C191.268 40.2999 193.588 39.9999 196.028 39.9999C200.668 39.9999 204.308 41.0599 206.948 43.1799C209.628 45.2599 210.968 48.1399 210.968 51.8199V67.2399C210.968 68.2799 210.608 69.0999 209.888 69.6999C209.208 70.2999 208.268 70.5999 207.068 70.5999C205.828 70.5999 204.868 70.3199 204.188 69.7599C203.508 69.1999 203.168 68.3999 203.168 67.3599V66.6999C200.888 69.2999 197.508 70.5999 193.028 70.5999ZM194.888 65.0799C197.408 65.0799 199.368 64.6999 200.768 63.9399C202.208 63.1399 202.928 62.0399 202.928 60.6399C202.928 59.3199 202.208 58.2599 200.768 57.4599C199.328 56.6599 197.408 56.2599 195.008 56.2599C192.848 56.2599 191.168 56.6399 189.968 57.3999C188.808 58.1599 188.228 59.2399 188.228 60.6399C188.228 62.0399 188.808 63.1399 189.968 63.9399C191.128 64.6999 192.768 65.0799 194.888 65.0799Z" fill="white"/>
<path d="M239.584 27.8799C240.584 28.5199 241.084 29.3399 241.084 30.3399C241.084 30.8599 240.924 31.3999 240.604 31.9599C239.964 33.0399 239.164 33.5799 238.204 33.5799C237.764 33.5799 237.204 33.4599 236.524 33.2199C234.884 32.5399 233.324 32.1999 231.844 32.1999C230.724 32.1999 229.824 32.5599 229.144 33.2799C228.464 33.9599 228.124 34.8799 228.124 36.0399V40.5999H235.024C236.264 40.5999 237.224 40.8799 237.904 41.4399C238.624 41.9999 238.984 42.7599 238.984 43.7199C238.984 44.6399 238.624 45.3799 237.904 45.9399C237.224 46.4999 236.264 46.7799 235.024 46.7799H228.124V66.9999C228.124 68.1199 227.784 68.9999 227.104 69.6399C226.424 70.2799 225.464 70.5999 224.224 70.5999C223.024 70.5999 222.064 70.2799 221.344 69.6399C220.624 68.9999 220.264 68.1199 220.264 66.9999V46.7799H218.944C217.744 46.7799 216.784 46.4999 216.064 45.9399C215.344 45.3799 214.984 44.6399 214.984 43.7199C214.984 42.7599 215.324 41.9999 216.004 41.4399C216.724 40.8799 217.704 40.5999 218.944 40.5999H220.264V36.2799C220.264 33.1999 221.244 30.7199 223.204 28.8399C225.204 26.9199 227.784 25.9599 230.944 25.9599C232.984 25.9599 234.664 26.1199 235.984 26.4399C237.304 26.7199 238.504 27.1999 239.584 27.8799Z" fill="white"/>
<path d="M275.182 40.5999C276.382 40.5999 277.342 40.9199 278.062 41.5599C278.782 42.1999 279.142 43.0799 279.142 44.1999V66.9999C279.142 68.1199 278.782 68.9999 278.062 69.6399C277.342 70.2799 276.382 70.5999 275.182 70.5999C273.942 70.5999 272.982 70.2799 272.302 69.6399C271.622 68.9999 271.282 68.1199 271.282 66.9999V46.6599H257.362V66.9999C257.362 68.1199 257.022 68.9999 256.342 69.6399C255.662 70.2799 254.702 70.5999 253.462 70.5999C252.262 70.5999 251.302 70.2799 250.582 69.6399C249.862 68.9999 249.502 68.1199 249.502 66.9999V46.6599H248.422C247.142 46.6599 246.122 46.3799 245.362 45.8199C244.602 45.2599 244.222 44.5399 244.222 43.6599C244.222 42.7399 244.602 41.9999 245.362 41.4399C246.122 40.8799 247.142 40.5999 248.422 40.5999H249.502V38.2599C249.502 34.3799 250.762 31.3199 253.282 29.0799C255.842 26.7999 259.302 25.6599 263.662 25.6599C266.182 25.6599 268.642 26.1199 271.042 27.0399C273.442 27.9599 275.382 29.1999 276.862 30.7599C277.302 31.2799 277.522 31.8999 277.522 32.6199C277.522 33.6199 277.162 34.4599 276.442 35.1399C275.882 35.6999 275.142 35.9799 274.222 35.9799C273.222 35.9799 272.322 35.6399 271.522 34.9599C270.362 33.9999 269.082 33.2599 267.682 32.7399C266.322 32.1799 264.982 31.8999 263.662 31.8999C259.462 31.8999 257.362 33.9399 257.362 38.0199V40.5999H275.182Z" fill="white"/>
<path d="M301.234 70.5999C295.874 70.5999 291.714 69.2599 288.754 66.5799C285.794 63.8599 284.314 60.0799 284.314 55.2399C284.314 50.3999 285.794 46.6599 288.754 44.0199C291.714 41.3399 295.874 39.9999 301.234 39.9999C304.074 39.9999 306.634 40.4799 308.914 41.4399C311.234 42.3599 313.054 43.6799 314.374 45.3999C314.854 45.9999 315.094 46.6399 315.094 47.3199C315.094 48.3599 314.554 49.2799 313.474 50.0799C312.994 50.4399 312.394 50.6199 311.674 50.6199C311.114 50.6199 310.534 50.4999 309.934 50.2599C309.334 49.9799 308.814 49.5999 308.374 49.1199C307.574 48.1999 306.534 47.4999 305.254 47.0199C304.014 46.4999 302.674 46.2399 301.234 46.2399C298.394 46.2399 296.174 47.0399 294.574 48.6399C293.014 50.1999 292.234 52.3999 292.234 55.2399C292.234 58.1599 293.014 60.4199 294.574 62.0199C296.174 63.5799 298.394 64.3599 301.234 64.3599C304.394 64.3599 307.094 63.2999 309.334 61.1799C310.454 60.0599 311.554 59.4999 312.634 59.4999C313.354 59.4999 314.014 59.7399 314.614 60.2199C315.574 60.9799 316.054 61.8999 316.054 62.9799C316.054 63.6599 315.774 64.3199 315.214 64.9599C313.374 66.9199 311.314 68.3599 309.034 69.2799C306.794 70.1599 304.194 70.5999 301.234 70.5999Z" fill="white"/>
<path d="M54.9001 4.1999C55.2334 3.7999 55.6667 3.5999 56.2001 3.5999C56.7334 3.5999 57.2334 3.86656 57.7001 4.3999L58.7001 5.4999C59.0334 5.76657 59.2001 6.06656 59.2001 6.3999C59.2001 6.66656 58.8001 7.23323 58.0001 8.0999C57.2667 8.96657 54.5334 12.0332 49.8 17.2999C39.3334 28.8332 33.3334 35.5999 31.8001 37.5999C31.0001 38.3999 30.6 38.8999 30.6 39.0999C30.6 39.2332 30.6667 39.2999 30.8001 39.2999C30.9334 39.2999 31.2667 39.1999 31.8001 38.9999C38.4001 37.1332 47.2001 33.0332 58.2001 26.6999C69.2001 20.2999 74.7001 15.8999 74.7001 13.4999C74.7001 13.3666 74.5334 13.2999 74.2001 13.2999C73.9334 13.2999 73.4334 13.4666 72.7001 13.7999C71.9667 14.1332 71.2667 14.2999 70.6001 14.2999C69.9334 14.2999 69.6001 13.9332 69.6001 13.1999C69.6001 12.6666 70.0667 12.2332 71.0001 11.8999C73.5334 10.9666 79.0667 7.53323 87.6001 1.5999C88.0667 1.13323 88.6001 0.899902 89.2001 0.899902C89.8001 0.899902 90.6667 1.53324 91.8 2.7999C93 4.06657 93.6001 5.2999 93.6001 6.4999C93.6001 14.1666 87.7001 21.1999 75.9001 27.5999C65.7667 33.1999 52.5001 38.5666 36.1001 43.6999C34.9667 44.0332 34.4001 44.3666 34.4001 44.6999C34.4001 45.8332 35.8334 48.2332 38.7001 51.8999C41.6334 55.5666 45.0667 59.2666 49.0001 62.9999C53.0001 66.7332 56.1334 68.9999 58.4001 69.7999C60.7334 70.6666 61.9001 71.7666 61.9001 73.0999C61.9001 73.3666 61.6334 73.6332 61.1001 73.8999C57.9667 75.4332 55.3667 76.1999 53.3 76.1999C51.2334 76.1999 49.1667 75.5666 47.1001 74.2999C45.1001 73.0999 43.1001 71.2999 41.1001 68.8999C39.1667 66.5666 37.4334 64.3332 35.9001 62.1999C34.4334 60.0666 32.7001 57.4666 30.7001 54.3999C28.7001 51.2666 27.3001 49.1999 26.5 48.1999C25.7667 47.1332 25.2001 46.5999 24.8001 46.5999C24.4667 46.5999 24.2 46.7332 24 46.9999C19.0667 52.8666 15.4 57.5332 13 60.9999C10.6 64.3999 8.60005 68.0666 7.00005 71.9999C6.93338 72.5999 6.66672 72.8999 6.20005 72.8999C5.60005 72.8999 4.63338 72.1666 3.30005 70.6999C1.90005 69.2332 1.06672 67.6999 0.800049 66.0999C0.800049 62.5666 4.93338 55.3999 13.2 44.5999C17.2 39.2666 22.8667 32.9999 30.2001 25.7999C37.6001 18.5332 45.8334 11.3332 54.9001 4.1999Z" fill="white"/>
</svg>
